<svg xmlns="http://www.w3.org/2000/svg" width="22" height="22" viewBox="0 0 22 22">
  <g id="Group_94" data-name="Group 94" transform="translate(-1182 -4304)">
    <g id="insta" transform="translate(1182 4304)">
      <path id="insta-2" data-name="insta" d="M11,0C8.014,0,7.639.013,6.465.066A8.072,8.072,0,0,0,3.8.577,5.386,5.386,0,0,0,1.847,1.846,5.4,5.4,0,0,0,.577,3.794a8.035,8.035,0,0,0-.511,2.67C.014,7.637,0,8.013,0,11s.013,3.361.066,4.535A8.084,8.084,0,0,0,.578,18.2a5.39,5.39,0,0,0,1.269,1.949,5.386,5.386,0,0,0,1.948,1.27,8.079,8.079,0,0,0,2.67.511C7.638,21.987,8.012,22,11,22s3.361-.013,4.535-.066a8.084,8.084,0,0,0,2.671-.511A5.636,5.636,0,0,0,21.422,18.2a8.153,8.153,0,0,0,.511-2.67C21.986,14.361,22,13.987,22,11s-.014-3.362-.066-4.536a8.15,8.15,0,0,0-.511-2.67,5.4,5.4,0,0,0-1.27-1.949A5.376,5.376,0,0,0,18.2.577,8.1,8.1,0,0,0,15.533.066C14.36.013,13.986,0,11,0Zm-.987,1.982H11c2.937,0,3.285.011,4.445.063a6.09,6.09,0,0,1,2.042.379,3.4,3.4,0,0,1,1.264.823,3.414,3.414,0,0,1,.823,1.265,6.078,6.078,0,0,1,.379,2.042c.053,1.16.064,1.508.064,4.444s-.011,3.284-.064,4.444a6.084,6.084,0,0,1-.379,2.042,3.648,3.648,0,0,1-2.087,2.086,6.068,6.068,0,0,1-2.042.379c-1.16.053-1.508.064-4.445.064S7.716,20,6.556,19.948a6.1,6.1,0,0,1-2.043-.379,3.407,3.407,0,0,1-1.265-.823,3.409,3.409,0,0,1-.823-1.264,6.078,6.078,0,0,1-.379-2.042c-.053-1.16-.063-1.508-.063-4.445s.011-3.284.063-4.444a6.09,6.09,0,0,1,.379-2.042,3.408,3.408,0,0,1,.823-1.265,3.414,3.414,0,0,1,1.265-.823,6.077,6.077,0,0,1,2.043-.379C7.571,2,7.964,1.982,10.014,1.98Zm6.859,1.826a1.32,1.32,0,1,0,1.32,1.32,1.32,1.32,0,0,0-1.32-1.32ZM11,5.351A5.648,5.648,0,1,0,16.649,11,5.649,5.649,0,0,0,11,5.351Zm0,1.982A3.667,3.667,0,1,1,7.334,11,3.667,3.667,0,0,1,11,7.333Z" fill="#fff" fill-rule="evenodd"/>
    </g>
  </g>
</svg>
